<?xml version="1.0" encoding="UTF-8" standalone="no"?>
<!-- Created with Inkscape (http://www.inkscape.org/) -->

<svg
   width="32"
   height="32"
   viewBox="0 0 8.4666668 8.4666668"
   version="1.1"
   id="svg1"
   inkscape:version="1.4.2 (ebf0e940, 2025-05-08)"
   sodipodi:docname="icon.svg"
   xmlns:inkscape="http://www.inkscape.org/namespaces/inkscape"
   xmlns:sodipodi="http://sodipodi.sourceforge.net/DTD/sodipodi-0.dtd"
   xmlns="http://www.w3.org/2000/svg"
   xmlns:svg="http://www.w3.org/2000/svg">
  <sodipodi:namedview
     id="namedview1"
     pagecolor="#ffffff"
     bordercolor="#000000"
     borderopacity="0.25"
     inkscape:showpageshadow="2"
     inkscape:pageopacity="0.0"
     inkscape:pagecheckerboard="0"
     inkscape:deskcolor="#d1d1d1"
     inkscape:document-units="px"
     inkscape:zoom="26.586941"
     inkscape:cx="3.6860202"
     inkscape:cy="16.004098"
     inkscape:window-width="3440"
     inkscape:window-height="1384"
     inkscape:window-x="0"
     inkscape:window-y="0"
     inkscape:window-maximized="1"
     inkscape:current-layer="svg1" />
  <defs
     id="defs1" />
  <path
     id="text2"
     style="font-size:3.175px;font-family:'SF Pro';-inkscape-font-specification:'SF Pro';text-align:center;text-anchor:middle;fill:#c8c8c8;stroke-width:0.625133;stroke-linecap:round;stroke-opacity:0.501437;fill-opacity:1"
     d="m 3.8688814,0.8616599 c -0.144065,0 -0.280816,0.01343 -0.410246,0.04029 -0.126988,0.02686 -0.249089,0.07202 -0.366295,0.135515 -0.114775,0.06349 -0.222209,0.147738 -0.322326,0.252737 l -2.157445,2.241704 c -0.08058,0.08058 -0.146531,0.159943 -0.197818,0.238086 -0.05129,0.07814 -0.08913,0.15506 -0.113539,0.230761 -0.02442,0.07326 -0.03663,0.148956 -0.03663,0.227099 0,0.112335 0.02809,0.225892 0.08426,0.340657 0.05617,0.112336 0.144077,0.230777 0.263725,0.355308 l 2.161108,2.230697 c 0.100126,0.105 0.20758,0.190464 0.322345,0.256399 0.117205,0.06594 0.239288,0.113562 0.366276,0.14286 0.129418,0.03174 0.266168,0.04761 0.410246,0.04761 l 3.179399,0.0035 v 1.5e-4 c 0.383383,0 0.67031,-0.09523 0.860781,-0.2857 0.192912,-0.188029 0.289362,-0.471294 0.289362,-0.849793 v -4.472413 c 0,-0.378499 -0.09645,-0.661764 -0.289362,-0.849793 -0.190471,-0.190471 -0.477398,-0.2857 -0.860781,-0.2857 z m 1.051235,1.535216 c 0.198319,0 0.381474,0.035 0.549462,0.104994 0.167988,0.06766 0.303304,0.167979 0.405964,0.30097 0.104992,0.13299 0.15749,0.296317 0.15749,0.48997 0,0.209985 -0.05483,0.375641 -0.164486,0.496965 -0.109658,0.121326 -0.248478,0.237987 -0.416466,0.349979 -0.123658,0.08166 -0.214658,0.158646 -0.272988,0.230974 -0.05833,0.07 -0.08749,0.153988 -0.08749,0.251981 v 0.02101 0.02099 c 0,0.06766 -0.02566,0.125991 -0.07699,0.174989 -0.049,0.049 -0.116664,0.0735 -0.202991,0.0735 -0.186654,0 -0.279964,-0.09216 -0.279964,-0.276476 v -0.02101 -0.0245 c 0,-0.172654 0.04081,-0.311475 0.122473,-0.416467 0.08399,-0.104993 0.18899,-0.200652 0.314981,-0.286979 0.153989,-0.107325 0.268322,-0.198325 0.342983,-0.272987 0.07466,-0.07699 0.111989,-0.174982 0.111989,-0.293974 0,-0.13299 -0.04782,-0.240315 -0.143479,-0.321976 -0.09566,-0.08399 -0.223988,-0.126 -0.384977,-0.126 -0.07699,0 -0.149321,0.01284 -0.216983,0.03851 -0.06533,0.02566 -0.124834,0.06299 -0.178497,0.111989 -0.05366,0.04666 -0.101482,0.10382 -0.143479,0.171482 l -0.063,0.08399 c -0.03033,0.042 -0.0665,0.07584 -0.108501,0.101505 -0.03966,0.02567 -0.08866,0.03849 -0.146987,0.03849 -0.05833,0 -0.113157,-0.01983 -0.164487,-0.05949 -0.05133,-0.042 -0.07699,-0.102658 -0.07699,-0.181985 0,-0.03033 0.0023,-0.0595 0.007,-0.0875 0.0047,-0.028 0.01167,-0.05599 0.02101,-0.08399 0.049,-0.160988 0.167988,-0.302157 0.356975,-0.423481 0.191319,-0.123658 0.437465,-0.185474 0.738443,-0.185474 z m -0.118985,2.8313 c 0.10266,0 0.191311,0.035 0.265972,0.104994 0.07466,0.07 0.111989,0.156317 0.111989,0.258976 0,0.10266 -0.03733,0.188982 -0.111989,0.258977 -0.07466,0.07 -0.163312,0.104994 -0.265972,0.104993 -0.100326,0 -0.187823,-0.035 -0.262484,-0.104993 -0.07466,-0.07233 -0.111989,-0.158651 -0.111989,-0.258977 0,-0.100327 0.03615,-0.185494 0.108481,-0.255488 0.07466,-0.07233 0.163333,-0.108482 0.265992,-0.108482 z" />
</svg>
