<?xml version="1.0" encoding="UTF-8" standalone="no"?>
<!-- Created with Inkscape (http://www.inkscape.org/) -->

<svg
   width="32"
   height="32"
   viewBox="0 0 8.4666668 8.4666668"
   version="1.1"
   id="svg1"
   inkscape:version="1.4.2 (ebf0e940, 2025-05-08)"
   sodipodi:docname="toolbar-icon.svg"
   xmlns:inkscape="http://www.inkscape.org/namespaces/inkscape"
   xmlns:sodipodi="http://sodipodi.sourceforge.net/DTD/sodipodi-0.dtd"
   xmlns="http://www.w3.org/2000/svg"
   xmlns:svg="http://www.w3.org/2000/svg">
  <sodipodi:namedview
     id="namedview1"
     pagecolor="#ffffff"
     bordercolor="#000000"
     borderopacity="0.25"
     inkscape:showpageshadow="2"
     inkscape:pageopacity="0.0"
     inkscape:pagecheckerboard="0"
     inkscape:deskcolor="#d1d1d1"
     inkscape:document-units="px"
     inkscape:zoom="46.810373"
     inkscape:cx="11.6534"
     inkscape:cy="16.438664"
     inkscape:window-width="3440"
     inkscape:window-height="1384"
     inkscape:window-x="0"
     inkscape:window-y="0"
     inkscape:window-maximized="0"
     inkscape:current-layer="layer1" />
  <defs
     id="defs1" />
  <g
     inkscape:label="Layer 1"
     inkscape:groupmode="layer"
     id="layer1"
     style="display:inline">
    <path
       d="m 3.4742822,4.7854427 q -0.064015,0 -0.096022,-0.036932 -0.032008,-0.038163 -0.032008,-0.097253 0,-0.019697 0,-0.038162 0,-0.019697 0,-0.039394 0,-0.1083328 0.043087,-0.1945067 0.043087,-0.087405 0.1181813,-0.1600371 0.076325,-0.072632 0.1735788,-0.1403403 0.078787,-0.055397 0.1391092,-0.1095639 0.060322,-0.055397 0.09356,-0.1206434 0.034469,-0.066477 0.034469,-0.1551129 0,-0.1071018 -0.057859,-0.1858893 -0.056629,-0.078788 -0.1538819,-0.1206434 -0.096022,-0.043087 -0.2166657,-0.043087 -0.098484,0 -0.1821961,0.032008 -0.082481,0.032007 -0.1428024,0.1034086 -0.059091,0.07017 -0.091098,0.1871204 -0.013542,0.045549 -0.045549,0.071401 -0.030776,0.025852 -0.077557,0.025852 -0.056629,0 -0.086174,-0.033239 -0.029546,-0.033238 -0.029546,-0.086174 0,-0.035701 0.00862,-0.076325 0.00862,-0.041856 0.028314,-0.084943 0.051704,-0.1181813 0.1464955,-0.200662 0.094791,-0.082481 0.2178967,-0.1255676 0.1231055,-0.043087 0.2622148,-0.043087 0.1871203,0 0.3397712,0.068939 0.1538818,0.067708 0.2437489,0.1981999 0.091098,0.1292607 0.091098,0.313919 0,0.178503 -0.09356,0.3089948 -0.09356,0.1292608 -0.2523662,0.2363625 -0.098484,0.067708 -0.1538819,0.1194124 -0.055398,0.051704 -0.078788,0.1083328 -0.02339,0.056629 -0.024621,0.1378782 0,0.00985 0,0.020928 0,0.00985 0,0.020928 0,0.059091 -0.030776,0.098484 -0.030776,0.039394 -0.094791,0.039394 z m 0,0.6733871 q -0.048011,0 -0.087405,-0.02339 -0.039394,-0.02339 -0.064015,-0.064015 -0.02339,-0.039394 -0.02339,-0.087405 0,-0.048011 0.02339,-0.088636 0.024621,-0.039394 0.064015,-0.062784 0.039394,-0.02339 0.087405,-0.02339 0.049242,0 0.088636,0.02339 0.040625,0.02339 0.064015,0.062784 0.02339,0.040625 0.02339,0.088636 0,0.048011 -0.02339,0.087405 -0.02339,0.040625 -0.064015,0.064015 -0.039394,0.02339 -0.088636,0.02339 z"
       id="text3"
       style="font-size:4.03392px;font-family:'SF Pro';-inkscape-font-specification:'SF Pro';text-align:center;text-anchor:middle;display:inline;fill:#4692fe;stroke-width:0.2101;stroke-linecap:round;stroke-opacity:0.501437"
       aria-label="􀅍" />
  </g>
  <path
     d="m 0.50605412,4.5521564 c -0.0943958,0 -0.17632313,-0.033838 -0.24578453,-0.1015196 -0.06768,-0.069462 -0.10151953,-0.1522801 -0.10151953,-0.2484563 0,-0.094397 0.0338395,-0.175433 0.10151953,-0.2431129 0.0694598,-0.067681 0.15138919,-0.1015196 0.24578452,-0.1015196 0.0961775,0 0.17810507,0.033838 0.24578472,0.1015196 0.06768,0.067681 0.10151956,0.1487181 0.10151956,0.2431129 0,0.096178 -0.0338395,0.1789953 -0.10151956,0.2484563 -0.06768,0.06768 -0.14960739,0.1015196 -0.24578471,0.1015196 z m 5.86944218,0 c -0.096181,0 -0.1781043,-0.033838 -0.2457844,-0.1015196 -0.067682,-0.069462 -0.1015163,-0.1522801 -0.1015163,-0.2484563 0,-0.096176 0.033834,-0.1772142 0.1015163,-0.2431129 C 6.1973939,3.8913866 6.27932,3.857548 6.3754963,3.857548 c 0.096181,0 0.1781052,0.033838 0.2457853,0.1015196 0.067682,0.067681 0.1015165,0.1487181 0.1015165,0.2431129 0,0.096178 -0.033846,0.1789953 -0.1015165,0.2484563 -0.067681,0.06768 -0.1496079,0.1015196 -0.2457853,0.1015196 z"
     style="font-size:3.175px;font-family:'SF Pro';-inkscape-font-specification:'SF Pro';text-align:center;text-anchor:middle;display:inline;fill:#4692fe;stroke-width:0.455948;stroke-linecap:round;stroke-opacity:0.501437"
     id="path1"
     sodipodi:insensitive="true"
     inkscape:label="balls" />
  <path
     d="m 1.1285303,6.7321585 c -0.27784344,0 -0.48711655,-0.069462 -0.62781917,-0.2083824 C 0.36178921,6.3866353 0.29232848,6.1800339 0.29232848,5.9039714 V 5.1158576 c 0,-0.069462 0.0187005,-0.1228912 0.0561023,-0.1602949 0.0374021,-0.037403 0.0899429,-0.056102 0.15762219,-0.056102 0.06768,0 0.12022042,0.018699 0.15762227,0.056102 0.0391835,0.037403 0.0587755,0.090833 0.0587755,0.1602949 v 0.7667413 c 0,0.1389213 0.0356223,0.2440035 0.10686352,0.3152453 0.0712416,0.069462 0.17365244,0.1041905 0.30723074,0.1041905 h 4.6111322 c 0.1317979,0 0.2333174,-0.034731 0.3045598,-0.1041905 C 6.125265,6.1266032 6.1617709,6.0215206 6.1617709,5.8825989 V 5.1158576 c 0,-0.069462 0.017808,-0.1228912 0.05343,-0.1602949 0.037404,-0.037403 0.090834,-0.056102 0.1602951,-0.056102 0.06946,0 0.1228911,0.018699 0.1602941,0.056102 0.037404,0.037403 0.056104,0.090833 0.056104,0.1602949 v 0.7881138 c 0,0.2760625 -0.070354,0.4826639 -0.2110543,0.6198047 C 6.2419191,6.6626972 6.0326456,6.7321585 5.7530209,6.7321585 Z m 0,-4.9183631 h 4.6244901 c 0.2796248,0 0.4888975,0.069462 0.6278189,0.2083825 0.1407031,0.1371413 0.2110543,0.3437423 0.2110543,0.6198046 v 0.6545351 c 0,0.069462 -0.0187,0.1237825 -0.056104,0.162966 -0.035626,0.037403 -0.089056,0.056102 -0.1602952,0.056102 -0.067682,0 -0.1202199,-0.018699 -0.1576218,-0.056102 -0.037403,-0.039184 -0.056104,-0.093504 -0.056104,-0.162966 V 2.6633552 c 0,-0.1389214 -0.036508,-0.243113 -0.109534,-0.3125738 C 5.9809956,2.2795398 5.8794719,2.2439178 5.7476743,2.2439178 H 1.136545 c -0.1335792,0 -0.23598882,0.035624 -0.30723068,0.1068636 -0.0712416,0.06946 -0.1068633,0.1736515 -0.1068633,0.3125738 v 0.6331624 c 0,0.069462 -0.0195919,0.1237825 -0.0587755,0.162966 -0.0374021,0.037403 -0.0899427,0.056102 -0.15762215,0.056102 -0.06768,0 -0.12022044,-0.018699 -0.15762227,-0.056102 C 0.311029,3.4202996 0.2923288,3.3659776 0.2923288,3.2965176 V 2.6419825 c 0,-0.2760623 0.0694618,-0.4826638 0.20838266,-0.6198046 C 0.64141405,1.8832568 0.85068686,1.8137954 1.1285303,1.8137954 Z"
     id="text8"
     style="font-size:3.175px;font-family:'SF Pro';-inkscape-font-specification:'SF Pro';text-align:center;text-anchor:middle;display:inline;fill:#4692fe;stroke-width:0.455948;stroke-linecap:round;stroke-opacity:0.501437"
     aria-label="􀅶"
     sodipodi:nodetypes="scsssscsscsscsscsssscsssscsscscsscsscsssscsscs" />
</svg>
