<?xml version="1.0" encoding="UTF-8" standalone="no"?>
<!-- Created with Inkscape (http://www.inkscape.org/) -->

<svg
   width="32"
   height="32"
   viewBox="0 0 8.4666668 8.4666668"
   version="1.1"
   id="svg1"
   sodipodi:docname="toolbar-icon.svg"
   inkscape:version="1.4.2 (ebf0e940, 2025-05-08)"
   xmlns:inkscape="http://www.inkscape.org/namespaces/inkscape"
   xmlns:sodipodi="http://sodipodi.sourceforge.net/DTD/sodipodi-0.dtd"
   xmlns="http://www.w3.org/2000/svg"
   xmlns:svg="http://www.w3.org/2000/svg">
  <sodipodi:namedview
     id="namedview1"
     pagecolor="#ffffff"
     bordercolor="#000000"
     borderopacity="0.25"
     inkscape:showpageshadow="2"
     inkscape:pageopacity="0.0"
     inkscape:pagecheckerboard="0"
     inkscape:deskcolor="#d1d1d1"
     inkscape:zoom="44.67839"
     inkscape:cx="15.824205"
     inkscape:cy="17.693118"
     inkscape:window-width="3440"
     inkscape:window-height="1384"
     inkscape:window-x="0"
     inkscape:window-y="0"
     inkscape:window-maximized="1"
     inkscape:current-layer="svg1" />
  <defs
     id="defs1" />
  <path
     d="m 7.0519337,7.6050306 -3.1793951,-0.00366 c -0.1440735,0 -0.2808218,-0.015873 -0.4102447,-0.047618 C 3.3353138,7.5244487 3.2132172,7.4768305 3.0960043,7.4108982 2.981233,7.3449659 2.873788,7.2594983 2.7736692,7.1544954 L 0.61255925,4.9237894 C 0.49290518,4.7992508 0.40499565,4.6808171 0.34883065,4.5684884 0.29266578,4.4537172 0.26458335,4.3401673 0.26458335,4.2278387 c 0,-0.078141 0.0122097,-0.1538409 0.036629,-0.2270992 0.0244193,-0.0757 0.0622692,-0.1526206 0.1135497,-0.2307625 0.05128,-0.078142 0.1172123,-0.1575046 0.1977969,-0.2380883 L 2.7700059,1.2901951 C 2.8701251,1.185192 2.9775701,1.1009454 3.0923409,1.0374552 3.2095536,0.97396498 3.3316502,0.92878926 3.4586307,0.90192804 3.5880523,0.87506684 3.7248005,0.86163624 3.8688753,0.86163624 h 3.1830582 c 0.3833833,0 0.6703103,0.0952353 0.8607811,0.28570606 0.1929126,0.1880287 0.2893689,0.4712928 0.2893689,0.8497923 v 4.4723983 c 0,0.3784995 -0.096456,0.6617636 -0.2893689,0.8497924 C 7.7222438,7.5097959 7.4353168,7.605031 7.0519337,7.6050306 Z M 7.0446137,7.015304 c 0.1831449,0 0.323556,-0.047617 0.4212333,-0.1428521 0.097678,-0.097678 0.1465165,-0.2417517 0.1465165,-0.432222 V 2.0264371 C 7.6123635,1.8359664 7.5635247,1.6931134 7.465847,1.597878 7.3681663,1.5002007 7.2277538,1.4513621 7.0446093,1.4513621 H 3.8578869 c -0.1367476,0 -0.2551813,0.015873 -0.355301,0.047618 -0.097678,0.031745 -0.1941341,0.096456 -0.2893691,0.1941336 L 1.0704217,3.9164925 C 0.96297653,4.0337052 0.90925395,4.1374873 0.90925395,4.2278387 c 0,0.046397 0.010989,0.094015 0.032967,0.1428521 0.0244193,0.046397 0.0671529,0.1013406 0.12820085,0.1648299 l 2.146458,2.2160532 c 0.095235,0.097678 0.191691,0.1660523 0.289369,0.2051237 0.097678,0.039071 0.2161114,0.058607 0.3553011,0.058607 z"
     id="text3"
     style="font-size:3.175px;font-family:'SF Pro';-inkscape-font-specification:'SF Pro';text-align:center;text-anchor:middle;fill:#000000;stroke-width:0.625134;stroke-linecap:round;stroke-opacity:0.501437"
     aria-label="􁂈"
     sodipodi:nodetypes="cccccccscsccccsscssccscsscsscccscccsss" />
  <path
     d="m 4.8481954,4.8924846 c -0.1617361,0 -0.2426049,-0.079861 -0.2426049,-0.239583 v -0.018192 -0.021229 c 0,-0.1496127 0.03538,-0.2699099 0.1061392,-0.3608906 C 4.7845117,4.161608 4.8754883,4.0787164 4.9846606,4.003909 5.1180934,3.910906 5.2171571,3.8320563 5.2818517,3.7673591 c 0.064694,-0.066721 0.097042,-0.1516353 0.097042,-0.2547462 0,-0.1152421 -0.041444,-0.2082454 -0.124335,-0.279008 -0.082891,-0.072785 -0.1940849,-0.1091765 -0.3335825,-0.1091765 -0.066718,0 -0.1293897,0.011111 -0.1880185,0.033359 -0.056608,0.02224 -0.1081619,0.054587 -0.1546609,0.097046 -0.046499,0.040437 -0.087946,0.089969 -0.1243351,0.1486012 l -0.054586,0.072784 c -0.026282,0.036392 -0.057619,0.065707 -0.09401,0.087948 -0.03437,0.02224 -0.076824,0.033359 -0.127367,0.033359 -0.050543,0 -0.098052,-0.017176 -0.1425309,-0.051556 -0.044478,-0.036391 -0.066718,-0.088959 -0.066718,-0.1576996 0,-0.026283 0.00201,-0.051556 0.00607,-0.075816 0.00406,-0.024263 0.010114,-0.048523 0.018193,-0.072785 C 4.0354667,3.1001638 4.1385742,2.9778462 4.3023326,2.8727128 4.4681122,2.7655577 4.6814031,2.7119792 4.9422035,2.7119792 c 0.1718454,0 0.3305493,0.030327 0.4761124,0.090982 0.1455629,0.058632 0.262822,0.1455692 0.3517773,0.2608116 0.090978,0.1152421 0.136465,0.2567684 0.136465,0.4245771 0,0.1819623 -0.047511,0.3255091 -0.1425309,0.4306424 C 5.6690023,4.0241242 5.5487106,4.1252147 5.403148,4.2222612 5.2959974,4.2930222 5.217152,4.3597433 5.1666082,4.4224191 5.1160663,4.4830731 5.0907944,4.5558577 5.0907944,4.6407728 v 0.018193 0.018192 c 0,0.058634 -0.022239,0.1091777 -0.066716,0.1516353 -0.042455,0.042458 -0.1010847,0.063687 -0.1758888,0.063687 z m -0.0091,0.9037425 c -0.086933,0 -0.1627473,-0.030327 -0.227442,-0.090982 -0.064694,-0.062674 -0.097042,-0.1374822 -0.097042,-0.2244193 0,-0.086937 0.031338,-0.1607337 0.09401,-0.2213867 0.064694,-0.062674 0.1415195,-0.094014 0.2304745,-0.094014 0.088955,0 0.1657794,0.030327 0.230475,0.090982 0.064694,0.060654 0.097042,0.1354615 0.097042,0.2244194 0,0.088959 -0.032347,0.1637658 -0.097042,0.2244193 -0.064694,0.060654 -0.1415195,0.090982 -0.2304755,0.090981 z"
     id="text2"
     style="font-size:3.175px;font-family:'SF Pro';-inkscape-font-specification:'SF Pro';text-align:center;text-anchor:middle;fill:#000000;stroke-width:0.517569;stroke-linecap:round;stroke-opacity:0.501437"
     aria-label="􀁜"
     sodipodi:nodetypes="cscscccscscccccscssccsccssccscscccscscsssss" />
</svg>
