<?xml version="1.0" encoding="UTF-8" standalone="no"?>
<!-- Created with Inkscape (http://www.inkscape.org/) -->

<svg
   width="32"
   height="32"
   viewBox="0 0 8.4666668 8.4666668"
   version="1.1"
   id="svg1"
   sodipodi:docname="toolbar-icon-on.svg"
   inkscape:version="1.4.2 (ebf0e940, 2025-05-08)"
   xmlns:inkscape="http://www.inkscape.org/namespaces/inkscape"
   xmlns:sodipodi="http://sodipodi.sourceforge.net/DTD/sodipodi-0.dtd"
   xmlns="http://www.w3.org/2000/svg"
   xmlns:svg="http://www.w3.org/2000/svg">
  <sodipodi:namedview
     id="namedview1"
     pagecolor="#ffffff"
     bordercolor="#000000"
     borderopacity="0.25"
     inkscape:showpageshadow="2"
     inkscape:pageopacity="0.0"
     inkscape:pagecheckerboard="0"
     inkscape:deskcolor="#d1d1d1"
     inkscape:zoom="34.160189"
     inkscape:cx="19.701296"
     inkscape:cy="16.378715"
     inkscape:window-width="3440"
     inkscape:window-height="1384"
     inkscape:window-x="0"
     inkscape:window-y="0"
     inkscape:window-maximized="0"
     inkscape:current-layer="svg1" />
  <defs
     id="defs1" />
  <path
     id="text1"
     style="font-size:3.175px;font-family:'SF Pro';-inkscape-font-specification:'SF Pro';text-align:center;text-anchor:middle;stroke-width:0.625134;stroke-linecap:round;stroke-opacity:0.501437"
     d="M 3.8690145 0.86144614 C 3.7249413 0.86144614 3.5881268 0.87489256 3.4587037 0.90175376 C 3.3317231 0.92861499 3.2095304 0.97417257 3.0923178 1.0376628 C 2.9775469 1.101153 2.869976 1.1853574 2.7698568 1.2903605 L 0.61236573 3.5320842 C 0.53178113 3.6126679 0.46624176 3.6916539 0.41496176 3.7697958 C 0.36368126 3.8479377 0.32569291 3.9250895 0.30127361 4.0007895 C 0.27685431 4.0740474 0.26458334 4.149507 0.26458334 4.227649 C 0.26458334 4.3399775 0.29265105 4.4539424 0.34881592 4.5687135 C 0.40498092 4.6810424 0.49271166 4.7991919 0.61236573 4.9237305 L 2.7734742 7.1546022 C 2.8735934 7.2596053 2.9811642 7.3449844 3.0959351 7.4109173 C 3.2131482 7.4768496 3.3353409 7.5242403 3.462321 7.5535442 C 3.5917438 7.5852892 3.7285584 7.6016033 3.8726319 7.6016033 L 7.0517661 7.6052207 C 7.4351492 7.6052207 7.7222247 7.5099207 7.9126954 7.31945 C 8.1056083 7.1314213 8.2020835 6.8478722 8.2020835 6.4693727 L 8.2020835 1.9972941 C 8.2020835 1.6187946 8.105608 1.3352455 7.9126954 1.1472168 C 7.7222247 0.95674605 7.4351494 0.86144614 7.0517661 0.86144614 L 3.8690145 0.86144614 z M 4.9361329 2.7119792 C 5.1069041 2.7119792 5.2648358 2.74214 5.409489 2.802413 C 5.554142 2.860676 5.6704225 2.9467948 5.7588217 3.0613119 C 5.8492307 3.1758286 5.894214 3.3167559 5.894214 3.4835084 C 5.894214 3.6643255 5.8470464 3.8069176 5.7526205 3.9113892 C 5.6581896 4.0158598 5.5386388 4.1162271 5.3939861 4.2126628 C 5.2875053 4.2829792 5.209603 4.3493358 5.1593751 4.4116171 C 5.1091491 4.4718891 5.0839275 4.5442775 5.0839275 4.6286581 L 5.0839275 4.6467449 L 5.0839275 4.6648316 C 5.0839275 4.7230966 5.0614639 4.7735365 5.0172649 4.8157268 C 4.9750749 4.8579178 4.916935 4.878772 4.8425985 4.878772 C 4.6818734 4.878772 4.6017864 4.7992608 4.6017864 4.6405437 L 4.6017864 4.6224569 L 4.6017864 4.6012696 C 4.6017864 4.4525985 4.6368896 4.3330433 4.7072063 4.2426352 C 4.7795333 4.1522262 4.8700179 4.0699583 4.9785076 3.9956218 C 5.1111064 3.9032038 5.2092898 3.824784 5.27358 3.760494 C 5.33787 3.694193 5.3702149 3.6102582 5.3702149 3.5077963 C 5.3702149 3.3932795 5.3290811 3.300611 5.2467083 3.2302938 C 5.1643353 3.1579668 5.0535711 3.1217733 4.9149456 3.1217733 C 4.8486446 3.1217733 4.786656 3.1327382 4.7283936 3.1548462 C 4.6721396 3.1769462 4.6206063 3.2092902 4.5743979 3.2514812 C 4.5281899 3.2916632 4.487053 3.3410128 4.4508912 3.3992758 L 4.3966309 3.4716228 C 4.3705129 3.5077858 4.3392596 3.5368549 4.3030966 3.5589559 C 4.2689416 3.5810559 4.2267161 3.5920289 4.1764893 3.5920289 C 4.1262623 3.5920289 4.0790968 3.5750322 4.0348959 3.5408692 C 3.9906959 3.5047072 3.9687501 3.4520809 3.9687501 3.3837728 C 3.9687501 3.3576548 3.9709212 3.33295 3.9749512 3.308842 C 3.9789812 3.284732 3.985009 3.260604 3.993038 3.236495 C 4.035228 3.0978682 4.1372612 2.9761311 4.299996 2.8716594 C 4.4647392 2.7651787 4.6769628 2.7119792 4.9361329 2.7119792 z M 4.8338136 5.1500733 C 4.9222126 5.1500733 4.998449 5.1802341 5.0627402 5.2405071 C 5.1270302 5.3007791 5.1593751 5.3748345 5.1593751 5.4632325 C 5.1593751 5.5516315 5.1270312 5.6262029 5.0627402 5.6864747 C 4.9984502 5.7467467 4.9222136 5.7769091 4.8338136 5.7769085 C 4.7474236 5.7769085 4.6717611 5.7467477 4.6074708 5.6864747 C 4.5431808 5.6241947 4.5113526 5.5496225 4.5113526 5.4632325 C 4.5113526 5.3768425 4.5420902 5.303879 4.6043702 5.2436077 C 4.6686602 5.1813277 4.7454146 5.1500733 4.8338136 5.1500733 z " />
</svg>
