<?xml version="1.0" encoding="UTF-8" standalone="no"?>
<!-- Created with Inkscape (http://www.inkscape.org/) -->

<svg
   width="1024"
   height="1024"
   viewBox="0 0 270.93334 270.93334"
   version="1.1"
   id="svg1"
   inkscape:version="1.4.2 (ebf0e940, 2025-05-08)"
   sodipodi:docname="icon.svg"
   xmlns:inkscape="http://www.inkscape.org/namespaces/inkscape"
   xmlns:sodipodi="http://sodipodi.sourceforge.net/DTD/sodipodi-0.dtd"
   xmlns="http://www.w3.org/2000/svg"
   xmlns:svg="http://www.w3.org/2000/svg">
  <sodipodi:namedview
     id="namedview1"
     pagecolor="#ffffff"
     bordercolor="#000000"
     borderopacity="0.25"
     inkscape:showpageshadow="2"
     inkscape:pageopacity="0.0"
     inkscape:pagecheckerboard="0"
     inkscape:deskcolor="#d1d1d1"
     inkscape:document-units="px"
     inkscape:zoom="0.80332956"
     inkscape:cx="208.5072"
     inkscape:cy="567.01511"
     inkscape:window-width="3440"
     inkscape:window-height="1384"
     inkscape:window-x="0"
     inkscape:window-y="0"
     inkscape:window-maximized="0"
     inkscape:current-layer="svg1" />
  <defs
     id="defs1" />
  <g
     inkscape:label="Layer 1"
     inkscape:groupmode="layer"
     id="layer1"
     style="display:inline" />
  <path
     id="text2"
     style="font-size:3.175px;font-family:'SF Pro';-inkscape-font-specification:'SF Pro';text-align:center;text-anchor:middle;fill:#9b9ca0;stroke-width:16.6702;stroke-linecap:round;stroke-opacity:0.501437"
     d="m 125.74788,45.554677 c -3.84175,0 -7.48845,0.358189 -10.9399,1.074353 -3.38634,0.716165 -6.64238,1.920561 -9.76788,3.613733 -3.06065,1.693172 -5.925578,3.93967 -8.595341,6.739641 l -57.53189,59.778776 c -2.148913,2.14887 -3.907487,4.26516 -5.27513,6.34897 -1.367643,2.08381 -2.376664,4.13493 -3.027722,6.15363 -0.651059,1.9536 -0.976685,3.97215 -0.976685,6.05596 0,2.99562 0.749036,6.0238 2.246891,9.0842 1.497896,2.99562 3.842039,6.15405 7.032646,9.47487 l 57.629559,59.48526 c 2.670013,2.80001 5.535472,5.07903 8.595862,6.83731 3.12546,1.75828 6.38102,3.02832 9.76736,3.80959 3.45116,0.84637 7.09782,1.26969 10.9399,1.26969 l 84.78398,0.094 v 0.004 c 10.22355,0 17.87493,-2.53948 22.95415,-7.61866 5.14433,-5.01412 7.71633,-12.56786 7.71633,-22.66115 V 75.834483 c 0,-10.093296 -2.572,-17.647034 -7.71633,-22.661149 -5.07922,-5.079222 -12.7306,-7.618657 -22.95415,-7.618657 z m 28.03292,40.939104 c 5.28851,0 10.17264,0.933297 14.65233,2.79983 4.47968,1.804316 8.08811,4.479451 10.8257,8.025867 2.7998,3.546402 4.19974,7.901782 4.19974,13.065862 0,5.59961 -1.46205,10.01709 -4.38629,13.25242 -2.92423,3.23534 -6.6261,6.34632 -11.10578,9.33277 -3.29754,2.17763 -5.72421,4.23056 -7.27966,6.15931 -1.55545,1.86654 -2.33319,4.10634 -2.33319,6.71949 v 0.56017 0.55966 c 0,1.80429 -0.68431,3.35977 -2.05311,4.66638 -1.30657,1.30658 -3.11105,1.96009 -5.41311,1.96009 -4.97743,0 -7.46569,-2.45747 -7.46569,-7.37268 v -0.56017 -0.65319 c 0,-4.60412 1.08833,-8.30599 3.26595,-11.10579 2.23985,-2.79981 5.03973,-5.35071 8.39949,-7.65276 4.10637,-2.86202 7.15524,-5.28869 9.14621,-7.27966 1.99097,-2.05319 2.98638,-4.6662 2.98638,-7.83931 0,-3.54641 -1.27519,-6.40841 -3.82612,-8.58604 -2.55093,-2.23984 -5.97301,-3.36 -10.26604,-3.36 -2.05319,0 -3.9819,0.342419 -5.78621,1.02681 -1.7421,0.68439 -3.32891,1.6798 -4.75992,2.98638 -1.431,1.24435 -2.70619,2.76853 -3.82612,4.57285 l -1.68,2.23965 c -0.80883,1.11993 -1.77346,2.02242 -2.89337,2.70681 -1.05771,0.68439 -2.3642,1.0263 -3.91965,1.0263 -1.55545,0 -3.01751,-0.52876 -4.3863,-1.58647 -1.3688,-1.11993 -2.0531,-2.73754 -2.0531,-4.85293 0,-0.80884 0.0621,-1.58658 0.18655,-2.33319 0.12445,-0.74661 0.31132,-1.49305 0.56017,-2.23966 1.30658,-4.293025 4.47968,-8.05752 9.51932,-11.292847 5.10186,-3.297543 11.66573,-4.945952 19.69182,-4.945952 z m -3.17293,75.501329 c 2.73759,0 5.10162,0.93329 7.09259,2.79983 1.99097,1.86655 2.98638,4.16847 2.98638,6.90604 0,2.73759 -0.99541,5.03951 -2.98638,6.90604 -1.99097,1.86655 -4.355,2.79984 -7.09259,2.79983 -2.67536,0 -5.00861,-0.93328 -6.99958,-2.79983 -1.99097,-1.92875 -2.98638,-4.23067 -2.98638,-6.90604 0,-2.67539 0.9641,-4.9465 2.89285,-6.81302 1.99097,-1.92875 4.35553,-2.89285 7.09311,-2.89285 z" />
</svg>
