<?xml version="1.0" encoding="UTF-8" standalone="no"?>
<!-- Created with Inkscape (http://www.inkscape.org/) -->

<svg
   width="1024"
   height="1024"
   viewBox="0 0 270.93334 270.93334"
   version="1.1"
   id="svg1"
   inkscape:version="1.4.2 (ebf0e940, 2025-05-08)"
   sodipodi:docname="icon-?.svg"
   xmlns:inkscape="http://www.inkscape.org/namespaces/inkscape"
   xmlns:sodipodi="http://sodipodi.sourceforge.net/DTD/sodipodi-0.dtd"
   xmlns="http://www.w3.org/2000/svg"
   xmlns:svg="http://www.w3.org/2000/svg">
  <sodipodi:namedview
     id="namedview1"
     pagecolor="#ffffff"
     bordercolor="#000000"
     borderopacity="0.25"
     inkscape:showpageshadow="2"
     inkscape:pageopacity="0.0"
     inkscape:pagecheckerboard="0"
     inkscape:deskcolor="#d1d1d1"
     inkscape:document-units="px"
     inkscape:zoom="0.9239513"
     inkscape:cx="607.71601"
     inkscape:cy="537.36598"
     inkscape:window-width="1888"
     inkscape:window-height="1158"
     inkscape:window-x="0"
     inkscape:window-y="0"
     inkscape:window-maximized="0"
     inkscape:current-layer="svg1" />
  <defs
     id="defs1" />
  <path
     d="m 133.60014,154.7853 c -4.97743,0 -7.46614,-2.4576 -7.46614,-7.37281 v -0.55997 -0.65328 c 0,-4.60412 1.08881,-8.30608 3.26643,-11.10588 2.23985,-2.79981 5.03965,-5.35075 8.39941,-7.6528 4.10637,-2.86202 7.15504,-5.28852 9.14601,-7.27949 1.99097,-2.05319 2.98646,-4.66633 2.98646,-7.83944 0,-3.54641 -1.27547,-6.40843 -3.8264,-8.58606 -2.55093,-2.23984 -5.9729,-3.35976 -10.26593,-3.35976 -2.05319,0 -3.98195,0.34219 -5.78626,1.02658 -1.7421,0.68439 -3.32865,1.67988 -4.75966,2.98646 -1.431,1.24435 -2.70646,2.76869 -3.82639,4.57301 l -1.6799,2.23984 c -0.80883,1.11993 -1.77321,2.02209 -2.89312,2.70648 -1.05771,0.68439 -2.36428,1.02658 -3.91973,1.02658 -1.55545,0 -3.01756,-0.52885 -4.38635,-1.58656 -1.3688,-1.11993 -2.0532,-2.73759 -2.0532,-4.85298 0,-0.80884 0.0622,-1.58657 0.18666,-2.33318 0.12445,-0.74661 0.3111,-1.49323 0.55995,-2.23984 1.30658,-4.293027 4.47969,-8.057204 9.51933,-11.292531 5.10186,-3.297543 11.66584,-4.946314 19.69193,-4.946314 5.28851,0 10.17261,0.933267 14.6523,2.7998 4.47968,1.804316 8.08831,4.479682 10.8259,8.026098 2.7998,3.546407 4.1997,7.901657 4.1997,13.065737 0,5.59961 -1.46212,10.01707 -4.38636,13.2524 -2.92423,3.23534 -6.62618,6.34624 -11.10586,9.33269 -3.29754,2.17763 -5.72403,4.23081 -7.27948,6.15956 -1.55545,1.86654 -2.33318,4.10638 -2.33318,6.71953 v 0.55997 0.55987 c 0,1.80429 -0.6844,3.35974 -2.0532,4.66635 -1.30657,1.30658 -3.11089,1.95987 -5.41295,1.95987 z m -0.27998,27.81136 c -2.67536,0 -5.00853,-0.93327 -6.9995,-2.79982 -1.99097,-1.92875 -2.98645,-4.2308 -2.98645,-6.90617 0,-2.67539 0.96437,-4.94634 2.89312,-6.81286 1.99097,-1.92875 4.35525,-2.89312 7.09283,-2.89312 2.73759,0 5.10186,0.93327 7.09283,2.79981 1.99097,1.86655 2.98646,4.16861 2.98646,6.90618 0,2.73759 -0.99549,5.03965 -2.98646,6.90618 -1.99097,1.86655 -4.35524,2.79981 -7.09283,2.7998 z"
     id="text1"
     style="font-size:3.175px;font-family:'SF Pro';-inkscape-font-specification:'SF Pro';text-align:center;text-anchor:middle;stroke-width:15.9277;stroke-linecap:round;stroke-opacity:0.501437;fill:#ffffff"
     aria-label="􀄢"
     sodipodi:nodetypes="cscscccscscccccscssccsccssccscscccscscsssss" />
</svg>
