<?xml version="1.0" encoding="UTF-8" standalone="no"?>
<!-- Created with Inkscape (http://www.inkscape.org/) -->

<svg
   width="1024"
   height="1024"
   viewBox="0 0 270.93334 270.93334"
   version="1.1"
   id="svg1"
   inkscape:version="1.4.2 (ebf0e940, 2025-05-08)"
   sodipodi:docname="icon.svg"
   xmlns:inkscape="http://www.inkscape.org/namespaces/inkscape"
   xmlns:sodipodi="http://sodipodi.sourceforge.net/DTD/sodipodi-0.dtd"
   xmlns="http://www.w3.org/2000/svg"
   xmlns:svg="http://www.w3.org/2000/svg">
  <sodipodi:namedview
     id="namedview1"
     pagecolor="#ffffff"
     bordercolor="#000000"
     borderopacity="0.25"
     inkscape:showpageshadow="2"
     inkscape:pageopacity="0.0"
     inkscape:pagecheckerboard="0"
     inkscape:deskcolor="#d1d1d1"
     inkscape:document-units="px"
     inkscape:zoom="0.71038472"
     inkscape:cx="364.59118"
     inkscape:cy="541.25601"
     inkscape:window-width="1888"
     inkscape:window-height="1158"
     inkscape:window-x="0"
     inkscape:window-y="0"
     inkscape:window-maximized="0"
     inkscape:current-layer="svg1" />
  <defs
     id="defs1" />
  <path
     id="text2"
     style="font-size:3.175px;font-family:'SF Pro';-inkscape-font-specification:'SF Pro';text-align:center;text-anchor:middle;fill:#969696;fill-opacity:1;stroke-width:16.1492;stroke-linecap:round;stroke-opacity:0.501437"
     d="m 126.0516,48.3644 c -3.72169,0 -7.25443,0.346995 -10.59803,1.04078 -3.28051,0.693785 -6.4348,1.860543 -9.46264,3.500803 -2.96499,1.64026 -5.7404,3.816556 -8.326735,6.529028 L 41.930177,117.34569 c -2.08176,2.08173 -3.785378,4.13188 -5.110283,6.15057 -1.324904,2.01869 -2.302393,4.00572 -2.933106,5.96133 -0.630713,1.89255 -0.946163,3.84802 -0.946163,5.86671 0,2.902 0.725628,5.83555 2.176675,8.80032 1.451088,2.902 3.721976,5.96174 6.812877,9.17878 l 55.828638,57.62635 c 2.586575,2.71251 5.362485,4.92031 8.327245,6.62363 3.02779,1.70334 6.18161,2.93369 9.46213,3.69055 3.34331,0.81992 6.87601,1.23001 10.59802,1.23001 l 82.13449,0.091 v 0.004 c 9.90406,0 17.31634,-2.46012 22.23683,-7.38057 4.98356,-4.85743 7.47519,-12.17512 7.47519,-21.95299 V 77.697963 c 0,-9.777881 -2.49163,-17.095566 -7.47519,-21.952989 C 225.59704,50.824477 218.18476,48.3644 208.2807,48.3644 Z"
     sodipodi:nodetypes="sccccscscccccccccsscss" />
</svg>
