<?xml version="1.0" encoding="UTF-8" standalone="no"?>
<!-- Created with Inkscape (http://www.inkscape.org/) -->

<svg
   width="1024"
   height="1024"
   viewBox="0 0 270.93334 270.93334"
   version="1.1"
   id="svg1"
   inkscape:version="1.4.2 (ebf0e940, 2025-05-08)"
   sodipodi:docname="icon.svg"
   xmlns:inkscape="http://www.inkscape.org/namespaces/inkscape"
   xmlns:sodipodi="http://sodipodi.sourceforge.net/DTD/sodipodi-0.dtd"
   xmlns="http://www.w3.org/2000/svg"
   xmlns:svg="http://www.w3.org/2000/svg">
  <sodipodi:namedview
     id="namedview1"
     pagecolor="#ffffff"
     bordercolor="#000000"
     borderopacity="0.25"
     inkscape:showpageshadow="2"
     inkscape:pageopacity="0.0"
     inkscape:pagecheckerboard="0"
     inkscape:deskcolor="#d1d1d1"
     inkscape:document-units="px"
     inkscape:zoom="1.1664916"
     inkscape:cx="184.74201"
     inkscape:cy="498.50339"
     inkscape:window-width="3440"
     inkscape:window-height="1384"
     inkscape:window-x="0"
     inkscape:window-y="0"
     inkscape:window-maximized="0"
     inkscape:current-layer="svg1" />
  <defs
     id="defs1" />
  <g
     inkscape:label="Layer 1"
     inkscape:groupmode="layer"
     id="layer1"
     style="display:inline" />
  <path
     id="text2"
     style="font-size:3.175px;font-family:'SF Pro';-inkscape-font-specification:'SF Pro';text-align:center;text-anchor:middle;fill:#969696;stroke-width:16.1492;stroke-linecap:round;stroke-opacity:0.501437;fill-opacity:1"
     d="m 126.0516,48.3644 c -3.72169,0 -7.25443,0.346995 -10.59803,1.04078 -3.28051,0.693785 -6.4348,1.860543 -9.46264,3.500803 -2.96499,1.64026 -5.7404,3.816556 -8.326735,6.529028 L 41.930177,117.34569 c -2.08176,2.08173 -3.785378,4.13188 -5.110283,6.15057 -1.324904,2.01869 -2.302393,4.00572 -2.933106,5.96133 -0.630713,1.89255 -0.946163,3.84802 -0.946163,5.86671 0,2.902 0.725628,5.83555 2.176675,8.80032 1.451088,2.902 3.721976,5.96174 6.812877,9.17878 l 55.828638,57.62635 c 2.586575,2.71251 5.362485,4.92031 8.327245,6.62363 3.02779,1.70334 6.18161,2.93369 9.46213,3.69055 3.34331,0.81992 6.87601,1.23001 10.59802,1.23001 l 82.13449,0.091 v 0.004 c 9.90406,0 17.31634,-2.46012 22.23683,-7.38057 4.98356,-4.85743 7.47519,-12.17512 7.47519,-21.95299 V 77.697963 c 0,-9.777881 -2.49163,-17.095566 -7.47519,-21.952989 C 225.59704,50.824477 218.18476,48.3644 208.2807,48.3644 Z m 27.15688,39.659757 c 5.12325,0 9.85475,0.90413 14.19445,2.712335 4.33969,1.747931 7.83535,4.339468 10.48739,7.775059 2.7123,3.435579 4.0685,7.654849 4.0685,12.657549 0,5.42463 -1.41636,9.70405 -4.24922,12.83828 -2.83285,3.13424 -6.41904,6.148 -10.75873,9.04113 -3.19448,2.10957 -5.54532,4.09835 -7.05216,5.96683 -1.50684,1.80821 -2.26027,3.97801 -2.26027,6.5095 v 0.54267 0.54216 c 0,1.74791 -0.66293,3.25479 -1.98896,4.52056 -1.26573,1.26575 -3.01382,1.89884 -5.24396,1.89884 -4.82187,0 -7.23238,-2.38067 -7.23238,-7.14228 v -0.54267 -0.63278 c 0,-4.46024 1.05432,-8.04642 3.1639,-10.75873 2.16986,-2.71232 4.88222,-5.1835 8.13701,-7.41362 3.97803,-2.77258 6.93163,-5.12341 8.86037,-7.05217 1.92877,-1.98902 2.89306,-4.52038 2.89306,-7.59433 0,-3.43558 -1.23534,-6.20814 -3.70655,-8.31772 -2.47121,-2.16984 -5.78635,-3.255 -9.94523,-3.255 -1.98902,0 -3.85747,0.33172 -5.60539,0.99472 -1.68766,0.66301 -3.22488,1.62731 -4.61117,2.89306 -1.38629,1.20546 -2.62163,2.68201 -3.70654,4.42994 l -1.6275,2.16966 c -0.78356,1.08494 -1.71804,1.95922 -2.80297,2.62223 -1.02466,0.663 -2.29031,0.99422 -3.79715,0.99422 -1.50685,0 -2.92321,-0.51223 -4.24922,-1.53688 -1.32603,-1.08494 -1.98894,-2.652 -1.98894,-4.70128 0,-0.78356 0.0601,-1.537 0.18072,-2.26028 0.12056,-0.72328 0.30159,-1.44639 0.54266,-2.16967 1.26574,-4.158869 4.33968,-7.805719 9.22184,-10.939942 4.94242,-3.194494 11.30118,-4.791391 19.07644,-4.791391 z m -3.07377,73.141913 c 2.65204,0 4.94219,0.90412 6.87094,2.71233 1.92875,1.80822 2.89306,4.03821 2.89306,6.69022 0,2.65204 -0.96431,4.88203 -2.89306,6.69023 -1.92875,1.80822 -4.2189,2.71234 -6.87094,2.71233 -2.59176,0 -4.85209,-0.90411 -6.78084,-2.71233 -1.92876,-1.86847 -2.89305,-4.09846 -2.89305,-6.69023 0,-2.59178 0.93396,-4.79191 2.80245,-6.6001 1.92875,-1.86849 4.21942,-2.80245 6.87144,-2.80245 z" />
</svg>
